<svg xmlns="http://www.w3.org/2000/svg" version="1.1" xmlns:xlink="http://www.w3.org/1999/xlink" xmlns:svgjs="http://svgjs.dev/svgjs" width="100%" height="100%" viewBox="0 0 1000 600"><rect width="1000" height="600" x="0" y="0" fill="#00000000"/><g><circle r="166.66666666666666" cx="354.36059061686194" cy="376.58277459581694" fill="#7d5cc2" transform="matrix(0.6659779980120383,0,0,0.6659779980120382,0,49.20415387416192)"/><path d="M394.65109335452195 317.69897319502275L333.6483058019721 317.69897319502275L333.6483058019721 367.7785610194742L388.20461482646385 367.7785610194742L388.20461482646385 383.89475733961933L333.6483058019721 383.89475733961933L333.6483058019721 435.4665855640842L394.65109335452195 435.4665855640842L394.65109335452195 451.58278188422946L314.0701117537957 451.58278188422946L314.0701117537957 301.5827768748775L394.65109335452195 301.5827768748775L394.65109335452195 317.69897319502275Z " fill="#ffffff" transform="matrix(0.6659779980120383,0,0,0.6659779980120382,0,49.20415387416192)"/><path d="M677.4125457749018 328.44966629505416L622.1095179072458 328.44966629505416L622.1095179072458 373.85009719619245L671.5683901881044 373.85009719619245L671.5683901881044 388.4604861631856L622.1095179072458 388.4604861631856L622.1095179072458 435.213730857564L677.4125457749018 435.213730857564L677.4125457749018 449.8241198245572L604.3606009399356 449.8241198245572L604.3606009399356 313.8392773280609L677.4125457749018 313.8392773280609L677.4125457749018 328.44966629505416ZM713.4515052268184 325.74403870857395Q708.3919816401004 325.74403870857395 704.9017220535409 322.22672284614964Q701.3844061911166 318.70940698372533 701.3844061911166 313.64988339700733L701.3844061911166 313.64988339700733Q701.3844061911166 308.5903598102892 704.9017220535409 305.07304394786496Q708.3919816401004 301.58278436130547 713.4515052268184 301.58278436130547L713.4515052268184 301.58278436130547Q718.3216348824828 301.58278436130547 721.7307256414479 305.07304394786496Q725.139816400413 308.5903598102892 725.139816400413 313.64988339700733L725.139816400413 313.64988339700733Q725.139816400413 318.70940698372533 721.7307256414479 322.22672284614964Q718.3216348824828 325.74403870857395 713.4515052268184 325.74403870857395L713.4515052268184 325.74403870857395ZM704.3064839845152 343.0600552620474L722.0283446759607 343.0600552620474L722.0283446759607 449.8241198245572L704.3064839845152 449.8241198245572L704.3064839845152 343.0600552620474ZM804.2523670290949 341.11200339978166Q823.7328856517526 341.11200339978166 835.7999846874544 352.9085396768354Q847.8670837231562 364.70507595388926 847.8670837231562 386.8912221630271L847.8670837231562 386.8912221630271L847.8670837231562 449.8241198245572L830.3346169627644 449.8241198245572L830.3346169627644 389.4345120943185Q830.3346169627644 373.47130933408516 822.3530155826477 364.97563871253726Q814.3714142025309 356.5070243668541 800.545657235617 356.5070243668541L800.545657235617 356.5070243668541Q786.5034500617846 356.5070243668541 778.2242296471551 365.27325774705Q769.9450092325255 374.03949112724604 769.9450092325255 390.7873258875586L769.9450092325255 390.7873258875586L769.9450092325255 449.8241198245572L752.22314854108 449.8241198245572L752.22314854108 343.0600552620474L769.9450092325255 343.0600552620474L769.9450092325255 358.2656822980663Q775.220983026162 350.094686986896 784.2848354408709 345.6033451933388Q793.3216315797148 341.11200339978166 804.2523670290949 341.11200339978166L804.2523670290949 341.11200339978166ZM914.6960851092178 451.58277775576937Q902.4125358665976 451.58277775576937 892.6722765552688 447.389054996725Q882.93201724394 443.19533223768065 877.3043118640611 435.70074382313044Q871.6495502083174 428.20615540858023 871.0543121392918 418.4658960972514L871.0543121392918 418.4658960972514L889.3714108997629 418.4658960972514Q890.1560428998422 426.4474974773681 896.8659993143131 431.5070210640861Q903.6030120046489 436.5665446508041 914.5066911781643 436.5665446508041L914.5066911781643 436.5665446508041Q924.6257383516004 436.5665446508041 930.4698939383975 432.1022591331117Q936.3140495251948 427.6109173395546 936.3140495251948 420.7927358216243L936.3140495251948 420.7927358216243Q936.3140495251948 413.7851603726406 930.0911060762903 410.37606961367544Q923.841106351521 406.9669788547104 910.7999813846864 403.6661131992046L910.7999813846864 403.6661131992046Q898.9222762800381 400.52758519888744 891.4276878654879 397.33494464684077Q883.9060431750729 394.11524781892933 878.548900553842 387.7840792665655Q873.1917579326112 381.45291071420183 873.1917579326112 371.11741333384737L873.1917579326112 371.11741333384737Q873.1917579326112 362.9464180226771 878.0618875882756 356.12823650474684Q882.93201724394 349.3100549868167 891.9147008310543 345.305726158826Q900.8703281423038 341.3284536067 912.3692453848448 341.3284536067L912.3692453848448 341.3284536067Q930.0911060762903 341.3284536067 940.9947852498057 350.2840809179496Q951.898464423321 359.2397082291992 952.6830964234002 374.82412312732527L952.6830964234002 374.82412312732527L934.9612357319547 374.82412312732527Q934.3659976629292 366.43667760923654 928.224223041619 361.37715402251854Q922.1095046961736 356.31763043580054 911.7740073158192 356.31763043580054L911.7740073158192 356.31763043580054Q902.2231419355439 356.31763043580054 896.5683802798003 360.4031280913856Q890.9406748999214 364.4886257469708 890.9406748999214 371.11741333384737L890.9406748999214 371.11741333384737Q890.9406748999214 376.39338712748383 894.3497656588866 379.80247788644886Q897.7588564178516 383.211568645414 902.8995488321641 385.24078933527414Q908.0672975223413 387.2970663009992 917.2393750405092 389.8132999564258L917.2393750405092 389.8132999564258Q928.7112360071854 392.9518279567428 935.9352616630877 395.9550745777359Q943.1322310431251 398.98537747459375 948.2999797333023 405.0189269924447Q953.4677284234795 411.0524765102955 953.6571223545332 420.7927358216243L953.6571223545332 420.7927358216243Q953.6571223545332 429.55896920182033 948.7869926988687 436.5665446508041Q943.9168630432043 443.6011763756527 935.0424045595491 447.5784489277786Q926.1950023517588 451.58277775576937 914.6960851092178 451.58277775576937L914.6960851092178 451.58277775576937ZM1028.0618809827395 357.67044422904064L1000.220973117858 357.67044422904064L1000.220973117858 420.60334189057073Q1000.220973117858 428.3955493396338 1003.5218387733637 431.61524616754525Q1006.8497607047345 434.8349429954568 1015.0207560159047 434.8349429954568L1015.0207560159047 434.8349429954568L1028.0618809827395 434.8349429954568L1028.0618809827395 449.8241198245572L1012.0986782225061 449.8241198245572Q997.2988953244593 449.8241198245572 989.8854757375034 443.00593830662706Q982.4991124264125 436.1877567886969 982.4991124264125 420.60334189057073L982.4991124264125 420.60334189057073L982.4991124264125 357.67044422904064L968.6462991836336 357.67044422904064L968.6462991836336 343.0600552620474L982.4991124264125 343.0600552620474L982.4991124264125 316.1931733282987L1000.220973117858 316.1931733282987L1000.220973117858 343.0600552620474L1028.0618809827395 343.0600552620474L1028.0618809827395 357.67044422904064ZM1146.893044580951 392.3565898877172Q1146.893044580951 397.4161134744352 1146.3248627877902 403.0708751301788L1146.3248627877902 403.0708751301788L1060.989368710204 403.0708751301788Q1061.9633946413367 418.8446839593586 1071.8118790561248 427.71914244301377Q1081.633307195048 436.5665446508041 1095.6755143688804 436.5665446508041L1095.6755143688804 436.5665446508041Q1107.1744316114214 436.5665446508041 1114.8584139570253 431.2094020295733Q1122.5423963026292 425.85225940834243 1125.680924302946 416.89663209709283L1125.680924302946 416.89663209709283L1144.7555987876317 416.89663209709283Q1140.480707200993 432.2916530641653 1127.628976165212 441.92368727203495Q1114.750188853566 451.58277775576937 1095.6755143688804 451.58277775576937L1095.6755143688804 451.58277775576937Q1080.4698873328616 451.58277775576937 1068.4839571247542 444.7645962378392Q1056.5250831925114 437.94641471990906 1049.7069016745813 425.36524644277597Q1042.888720156651 412.81113444150765 1042.888720156651 396.25269361224866L1042.888720156651 396.25269361224866Q1042.888720156651 379.6942527829897 1049.4904514676628 367.2213096093159Q1056.1192390545393 354.74836643564197 1068.1051692626468 348.038410021171Q1080.0910994707542 341.3284536067 1095.6755143688804 341.3284536067L1095.6755143688804 341.3284536067Q1110.8540851290345 341.3284536067 1122.5423963026292 347.9301849177118Q1134.2307074762236 354.5589725045884 1140.5618760285874 366.16611485058854Q1146.893044580951 377.74620092072394 1146.893044580951 392.3565898877172L1146.893044580951 392.3565898877172ZM1128.6030020963449 388.6498800942393Q1128.6030020963449 378.53083292080316 1124.1116603027876 371.22563843730654Q1119.6203185092304 363.9204439538099 1111.9363361636265 360.10550905687285Q1104.2523538180228 356.31763043580054 1094.8908823688012 356.31763043580054L1094.8908823688012 356.31763043580054Q1081.4439132639945 356.31763043580054 1072.0012729871783 364.89446988494285Q1062.5586327103624 373.47130933408516 1061.1787626412574 388.6498800942393L1061.1787626412574 388.6498800942393L1128.6030020963449 388.6498800942393ZM1179.4417444463083 325.74403870857395Q1174.3822208595902 325.74403870857395 1170.864904997166 322.22672284614964Q1167.3475891347416 318.70940698372533 1167.3475891347416 313.64988339700733L1167.3475891347416 313.64988339700733Q1167.3475891347416 308.5903598102892 1170.864904997166 305.07304394786496Q1174.3822208595902 301.58278436130547 1179.4417444463083 301.58278436130547L1179.4417444463083 301.58278436130547Q1184.3118741019725 301.58278436130547 1187.7209648609378 305.07304394786496Q1191.130055619903 308.5903598102892 1191.130055619903 313.64988339700733L1191.130055619903 313.64988339700733Q1191.130055619903 318.70940698372533 1187.7209648609378 322.22672284614964Q1184.3118741019725 325.74403870857395 1179.4417444463083 325.74403870857395L1179.4417444463083 325.74403870857395ZM1170.2696669281404 343.0600552620474L1188.0185838954505 343.0600552620474L1188.0185838954505 449.8241198245572L1170.2696669281404 449.8241198245572L1170.2696669281404 343.0600552620474ZM1270.2155499727198 341.11200339978166Q1289.6960685953775 341.11200339978166 1301.7631676310796 352.9085396768354Q1313.857322942646 364.70507595388926 1313.857322942646 386.8912221630271L1313.857322942646 386.8912221630271L1313.857322942646 449.8241198245572L1296.324856182254 449.8241198245572L1296.324856182254 389.4345120943185Q1296.324856182254 373.47130933408516 1288.3432548021374 364.97563871253726Q1280.334597146156 356.5070243668541 1266.508840179242 356.5070243668541L1266.508840179242 356.5070243668541Q1252.4936892812746 356.5070243668541 1244.2144688666451 365.27325774705Q1235.9352484520155 374.03949112724604 1235.9352484520155 390.7873258875586L1235.9352484520155 390.7873258875586L1235.9352484520155 449.8241198245572L1218.21338776057 449.8241198245572L1218.21338776057 343.0600552620474L1235.9352484520155 343.0600552620474L1235.9352484520155 358.2656822980663Q1241.1841659697873 350.094686986896 1250.2480183844957 345.6033451933388Q1259.3118707992046 341.11200339978166 1270.2155499727198 341.11200339978166L1270.2155499727198 341.11200339978166Z " fill="#7d5cc2" transform="matrix(0.6659779980120383,0,0,0.6659779980120382,0,49.20415387416192)"/></g></svg>